<svg width="18" height="14" viewBox="0 0 18 14" fill="none" xmlns="http://www.w3.org/2000/svg">
<path d="M2.33335 13.6667C1.87502 13.6667 1.4828 13.5036 1.15669 13.1775C0.83002 12.8508 0.666687 12.4583 0.666687 12V9.49999H2.33335V12H15.6667V1.99999H2.33335V4.49999H0.666687V1.99999C0.666687 1.54166 0.83002 1.14944 1.15669 0.823328C1.4828 0.496661 1.87502 0.333328 2.33335 0.333328H15.6667C16.125 0.333328 16.5175 0.496661 16.8442 0.823328C17.1703 1.14944 17.3334 1.54166 17.3334 1.99999V12C17.3334 12.4583 17.1703 12.8508 16.8442 13.1775C16.5175 13.5036 16.125 13.6667 15.6667 13.6667H2.33335ZM8.58335 10.75L7.41669 9.54166L9.14585 7.83333H0.666687V6.16666H9.14585L7.41669 4.45833L8.58335 3.24999L12.3334 6.99999L8.58335 10.75Z" fill="#1C1B1F" fill-opacity="0.22"/>
</svg>
