<svg width="14" height="19" viewBox="0 0 14 19" fill="none" xmlns="http://www.w3.org/2000/svg">
<path d="M1.99998 18.3333C1.54165 18.3333 1.14942 18.1703 0.823313 17.8442C0.496646 17.5175 0.333313 17.125 0.333313 16.6667V8.33334C0.333313 7.875 0.496646 7.4825 0.823313 7.15584C1.14942 6.82972 1.54165 6.66667 1.99998 6.66667H2.83331V5C2.83331 3.84722 3.2397 2.86445 4.05248 2.05167C4.8647 1.23945 5.8472 0.833336 6.99998 0.833336C8.15276 0.833336 9.13554 1.23945 9.94831 2.05167C10.7605 2.86445 11.1666 3.84722 11.1666 5V6.66667H12C12.4583 6.66667 12.8508 6.82972 13.1775 7.15584C13.5036 7.4825 13.6666 7.875 13.6666 8.33334V16.6667C13.6666 17.125 13.5036 17.5175 13.1775 17.8442C12.8508 18.1703 12.4583 18.3333 12 18.3333H1.99998ZM1.99998 16.6667H12V8.33334H1.99998V16.6667ZM6.99998 14.1667C7.45831 14.1667 7.85081 14.0036 8.17748 13.6775C8.50359 13.3508 8.66665 12.9583 8.66665 12.5C8.66665 12.0417 8.50359 11.6492 8.17748 11.3225C7.85081 10.9964 7.45831 10.8333 6.99998 10.8333C6.54165 10.8333 6.14942 10.9964 5.82331 11.3225C5.49665 11.6492 5.33331 12.0417 5.33331 12.5C5.33331 12.9583 5.49665 13.3508 5.82331 13.6775C6.14942 14.0036 6.54165 14.1667 6.99998 14.1667ZM4.49998 6.66667H9.49998V5C9.49998 4.30556 9.25692 3.71528 8.77081 3.22917C8.2847 2.74306 7.69442 2.5 6.99998 2.5C6.30554 2.5 5.71526 2.74306 5.22915 3.22917C4.74304 3.71528 4.49998 4.30556 4.49998 5V6.66667Z" fill="#1C1B1F" fill-opacity="0.21"/>
</svg>
