<svg width="18" height="18" viewBox="0 0 18 18" fill="none" xmlns="http://www.w3.org/2000/svg">
<path d="M2.16667 17.75C1.70833 17.75 1.31583 17.5866 0.989167 17.26C0.663055 16.9339 0.5 16.5416 0.5 16.0833V4.41665C0.5 3.95831 0.663055 3.56581 0.989167 3.23915C1.31583 2.91304 1.70833 2.74998 2.16667 2.74998H9.60417L7.9375 4.41665H2.16667V16.0833H13.8333V10.2916L15.5 8.62498V16.0833C15.5 16.5416 15.3369 16.9339 15.0108 17.26C14.6842 17.5866 14.2917 17.75 13.8333 17.75H2.16667ZM11.4792 3.22915L12.6667 4.39581L7.16667 9.89581V11.0833H8.33333L13.8542 5.56248L15.0417 6.72915L9.04167 12.75H5.5V9.20831L11.4792 3.22915ZM15.0417 6.72915L11.4792 3.22915L13.5625 1.14581C13.8958 0.81248 14.2953 0.645813 14.7608 0.645813C15.2258 0.645813 15.6181 0.81248 15.9375 1.14581L17.1042 2.33331C17.4236 2.65276 17.5833 3.04165 17.5833 3.49998C17.5833 3.95831 17.4236 4.3472 17.1042 4.66665L15.0417 6.72915Z" fill="#D9D9D9"/>
</svg>
